<?xml version="1.0" encoding="UTF-8"?><svg id="a" xmlns="http://www.w3.org/2000/svg" viewBox="0 0 305 73"><defs><style>.b,.c{fill:#fff;}.c{stroke:#fff;stroke-miterlimit:10;stroke-width:2px;}</style></defs><path class="b" d="M41.62,53.99c.34,.11,.68,.18,1.02,.21,.34,.03,.68,.05,1.02,.05,.85,0,1.67-.12,2.46-.35,.79-.23,1.53-.57,2.22-1.01,.69-.44,1.31-.97,1.85-1.6,.51-.59,.93-1.24,1.26-1.95,.03-.07,.12-.09,.17-.03l6.21,6.24s.04,.1,.01,.14c-.8,1.12-1.71,2.13-2.74,3.02-1.05,.92-2.19,1.69-3.42,2.33-1.22,.64-2.51,1.12-3.87,1.45-1.35,.33-2.74,.5-4.17,.5-2.41,0-4.67-.45-6.79-1.34-2.12-.89-3.97-2.14-5.56-3.74-1.59-1.6-2.84-3.5-3.75-5.7-.92-2.2-1.37-4.63-1.37-7.27s.46-5.18,1.37-7.41c.92-2.24,2.17-4.14,3.75-5.72,1.59-1.58,3.44-2.8,5.56-3.67,2.12-.87,4.38-1.31,6.79-1.31,1.43,0,2.82,.17,4.18,.51,1.36,.34,2.66,.83,3.88,1.47,1.22,.64,2.37,1.42,3.43,2.35,.92,.8,1.74,1.68,2.47,2.64,.21,.27,.19,.66-.03,.92l-15.98,19.26Zm4.47-17.98c-.4-.15-.8-.24-1.2-.29-.39-.04-.8-.06-1.23-.06-1.19,0-2.32,.22-3.37,.65-1.05,.44-1.97,1.06-2.75,1.87-.78,.81-1.39,1.78-1.84,2.92-.45,1.14-.67,2.42-.67,3.85,0,.32,.02,.68,.05,1.09,.03,.41,.08,.81,.16,1.23,.07,.42,.16,.81,.27,1.2,.11,.38,.24,.72,.42,1.02l10.16-13.48Z"/><path class="c" d="M19.86,61.82c-1.88,0-3.54-.51-4.99-1.54-1.45-1.02-2.58-2.42-3.39-4.19-.81-1.77-1.22-3.81-1.22-6.11V15.03c0-.94,.3-1.71,.9-2.3,.6-.6,1.37-.9,2.3-.9s1.71,.3,2.3,.9c.6,.6,.9,1.37,.9,2.3V49.98c0,1.58,.3,2.88,.9,3.9,.6,1.02,1.37,1.54,2.3,1.54h1.6c.85,0,8.55-3.7,9.08-3.1,.53,.6,1.55,1.58,1.55,2.52s-2,3-7,6c-2,1-3.83,.98-5.1,.98h-.13Z"/><path class="c" d="M77.08,61.72c-1.32,0-2.35-.7-3.07-2.11l-13.57-28.61c-.34-.72-.37-1.44-.1-2.14s.82-1.25,1.63-1.63c.72-.38,1.46-.45,2.21-.19s1.31,.75,1.7,1.47l12.67,27.33h-3.07l12.54-27.33c.38-.72,.97-1.22,1.76-1.47,.79-.26,1.59-.19,2.4,.19,.77,.34,1.28,.88,1.54,1.6,.26,.73,.21,1.45-.13,2.18l-13.57,28.61c-.64,1.41-1.62,2.11-2.94,2.11Z"/><path class="c" d="M101.51,61.82c-1.02,0-1.81-.27-2.37-.8-.55-.53-.83-1.33-.83-2.4V30.01c0-1.02,.28-1.81,.83-2.37s1.34-.83,2.37-.83,1.87,.27,2.4,.8c.53,.53,.8,1.33,.8,2.4v28.61c0,1.02-.27,1.81-.8,2.37-.53,.55-1.33,.83-2.4,.83Zm-.06-21.89c0-2.56,.63-4.85,1.89-6.88,1.26-2.03,2.95-3.64,5.09-4.83,2.13-1.19,4.48-1.79,7.04-1.79s4.47,.42,5.73,1.25c1.26,.83,1.74,1.82,1.44,2.98-.13,.6-.37,1.06-.74,1.38-.36,.32-.78,.52-1.25,.61-.47,.09-.98,.06-1.54-.06-2.73-.55-5.18-.6-7.36-.13-2.18,.47-3.89,1.34-5.15,2.62-1.26,1.28-1.89,2.9-1.89,4.86h-3.26Z"/><path class="c" d="M138.45,62.07c-3.12,0-5.91-.78-8.38-2.34-2.47-1.56-4.43-3.67-5.86-6.34-1.43-2.67-2.14-5.68-2.14-9.06s.78-6.4,2.34-9.09c1.56-2.69,3.67-4.81,6.34-6.37,2.67-1.56,5.66-2.34,8.99-2.34s6.31,.78,8.96,2.34c2.64,1.56,4.75,3.68,6.3,6.37,1.56,2.69,2.34,5.72,2.34,9.09h-2.5c0,3.37-.71,6.39-2.14,9.06-1.43,2.67-3.38,4.78-5.86,6.34-2.47,1.56-5.27,2.34-8.38,2.34Zm1.28-5.76c2.18,0,4.12-.52,5.82-1.57,1.71-1.04,3.05-2.47,4.03-4.29,.98-1.81,1.47-3.85,1.47-6.11s-.49-4.36-1.47-6.18c-.98-1.81-2.33-3.24-4.03-4.29s-3.65-1.57-5.82-1.57-4.06,.52-5.79,1.57c-1.73,1.05-3.09,2.47-4.1,4.29-1,1.81-1.5,3.87-1.5,6.18s.5,4.3,1.5,6.11c1,1.81,2.37,3.24,4.1,4.29,1.73,1.05,3.66,1.57,5.79,1.57Zm14.34,5.57c-.94,0-1.72-.31-2.34-.93s-.93-1.4-.93-2.34v-9.79l1.22-6.78,5.31,2.3v14.27c0,.94-.31,1.72-.93,2.34s-1.4,.93-2.34,.93Zm0-35.35c-.94,0-1.72,.31-2.34,.93s-.93,1.4-.93,2.34l3.28,4.04,3,8,.24,2.24v-14.27c0-.94-.31-1.72-.93-2.34s-1.4-.93-2.34-.93Z"/><path class="c" d="M166.96,21.11c-1.15,0-2.14-.42-2.98-1.25s-1.25-1.82-1.25-2.98,.42-2.14,1.25-2.98,1.82-1.25,2.98-1.25,2.14,.42,2.98,1.25,1.25,1.82,1.25,2.98-.42,2.14-1.25,2.98-1.82,1.25-2.98,1.25Zm0,40.7c-.94,0-1.72-.31-2.34-.93-.62-.62-.93-1.4-.93-2.34V30.07c0-.98,.31-1.77,.93-2.37,.62-.6,1.4-.9,2.34-.9s1.77,.3,2.37,.9c.6,.6,.9,1.39,.9,2.37v28.48c0,.94-.3,1.72-.9,2.34-.6,.62-1.39,.93-2.37,.93Z"/><path class="c" d="M193.26,62.07c-3.41,0-6.45-.78-9.12-2.34-2.67-1.56-4.76-3.67-6.27-6.34-1.51-2.67-2.27-5.68-2.27-9.06s.75-6.53,2.24-9.22c1.49-2.69,3.54-4.79,6.14-6.3,2.6-1.51,5.59-2.27,8.96-2.27,2.52,0,4.82,.48,6.91,1.44,2.09,.96,3.97,2.4,5.63,4.32,.6,.68,.81,1.39,.64,2.11s-.64,1.37-1.41,1.92c-.6,.43-1.26,.57-1.98,.42s-1.39-.52-1.98-1.12c-2.09-2.22-4.7-3.33-7.81-3.33-2.18,0-4.1,.5-5.76,1.5-1.66,1-2.97,2.4-3.9,4.19-.94,1.79-1.41,3.9-1.41,6.34,0,2.3,.48,4.35,1.44,6.14s2.29,3.21,4,4.26c1.71,1.05,3.69,1.57,5.95,1.57,1.49,0,2.8-.18,3.94-.54,1.13-.36,2.17-.93,3.1-1.7,.68-.55,1.39-.86,2.11-.93,.72-.06,1.36,.14,1.92,.61,.72,.6,1.13,1.27,1.21,2.02,.09,.75-.17,1.42-.77,2.02-3.07,2.86-6.91,4.29-11.52,4.29Z"/><path class="c" d="M226.72,62.07c-3.46,0-6.51-.76-9.15-2.27s-4.73-3.61-6.24-6.27c-1.52-2.67-2.27-5.73-2.27-9.18s.76-6.58,2.27-9.25c1.51-2.67,3.59-4.76,6.24-6.27,2.65-1.51,5.7-2.27,9.15-2.27s6.44,.76,9.09,2.27c2.65,1.52,4.72,3.61,6.24,6.27,1.51,2.67,2.27,5.75,2.27,9.25s-.75,6.52-2.24,9.18c-1.49,2.67-3.56,4.76-6.21,6.27s-5.7,2.27-9.15,2.27Zm0-5.76c2.22,0,4.18-.51,5.89-1.54,1.71-1.02,3.04-2.43,4-4.22s1.44-3.86,1.44-6.21-.48-4.43-1.44-6.24-2.29-3.23-4-4.26c-1.71-1.02-3.67-1.54-5.89-1.54s-4.18,.51-5.89,1.54c-1.71,1.02-3.05,2.44-4.03,4.26s-1.47,3.89-1.47,6.24,.49,4.42,1.47,6.21,2.33,3.2,4.03,4.22c1.71,1.02,3.67,1.54,5.89,1.54Z"/><path class="c" d="M252.95,21.11c-1.15,0-2.14-.42-2.98-1.25s-1.25-1.82-1.25-2.98,.42-2.14,1.25-2.98,1.82-1.25,2.98-1.25,2.14,.42,2.98,1.25,1.25,1.82,1.25,2.98-.42,2.14-1.25,2.98-1.82,1.25-2.98,1.25Zm0,40.7c-.94,0-1.72-.31-2.34-.93-.62-.62-.93-1.4-.93-2.34V30.07c0-.98,.31-1.77,.93-2.37,.62-.6,1.4-.9,2.34-.9s1.77,.3,2.37,.9c.6,.6,.9,1.39,.9,2.37v28.48c0,.94-.3,1.72-.9,2.34-.6,.62-1.39,.93-2.37,.93Z"/><path class="c" d="M265.64,61.88c-.94,0-1.72-.31-2.34-.93-.62-.62-.93-1.4-.93-2.34V30.07c0-.98,.31-1.77,.93-2.37,.62-.6,1.4-.9,2.34-.9s1.77,.3,2.37,.9c.6,.6,.9,1.39,.9,2.37v28.54c0,.94-.3,1.72-.9,2.34-.6,.62-1.39,.93-2.37,.93Zm26.3,0c-.94,0-1.72-.31-2.34-.93-.62-.62-.93-1.4-.93-2.34v-15.74c0-2.43-.45-4.42-1.34-5.95-.9-1.54-2.1-2.68-3.62-3.42-1.51-.75-3.25-1.12-5.22-1.12-1.79,0-3.41,.36-4.86,1.09s-2.6,1.7-3.46,2.91c-.85,1.22-1.28,2.61-1.28,4.19h-4.03c0-2.69,.65-5.09,1.95-7.2,1.3-2.11,3.08-3.79,5.34-5.02,2.26-1.24,4.8-1.86,7.62-1.86s5.58,.63,7.9,1.89c2.33,1.26,4.16,3.1,5.5,5.54,1.34,2.43,2.02,5.42,2.02,8.96v15.74c0,.94-.31,1.72-.93,2.34-.62,.62-1.4,.93-2.34,.93Z"/></svg>